<svg id="visual" viewBox="0 0 900 200" width="900" height="200" xmlns="http://www.w3.org/2000/svg" xmlns:xlink="http://www.w3.org/1999/xlink" version="1.1"><rect x="0" y="0" width="900" height="200" fill="#d9ddfd"></rect><path d="M0 97L21.5 97.3C43 97.7 86 98.3 128.8 99.7C171.7 101 214.3 103 257.2 100.2C300 97.3 343 89.7 385.8 87.8C428.7 86 471.3 90 514.2 93.3C557 96.7 600 99.3 642.8 103C685.7 106.7 728.3 111.3 771.2 113C814 114.7 857 113.3 878.5 112.7L900 112L900 0L878.5 0C857 0 814 0 771.2 0C728.3 0 685.7 0 642.8 0C600 0 557 0 514.2 0C471.3 0 428.7 0 385.8 0C343 0 300 0 257.2 0C214.3 0 171.7 0 128.8 0C86 0 43 0 21.5 0L0 0Z" fill="#f65035"></path><path d="M0 79L21.5 76.7C43 74.3 86 69.7 128.8 67.2C171.7 64.7 214.3 64.3 257.2 70.5C300 76.7 343 89.3 385.8 89.3C428.7 89.3 471.3 76.7 514.2 72C557 67.3 600 70.7 642.8 76.8C685.7 83 728.3 92 771.2 91.3C814 90.7 857 80.3 878.5 75.2L900 70L900 0L878.5 0C857 0 814 0 771.2 0C728.3 0 685.7 0 642.8 0C600 0 557 0 514.2 0C471.3 0 428.7 0 385.8 0C343 0 300 0 257.2 0C214.3 0 171.7 0 128.8 0C86 0 43 0 21.5 0L0 0Z" fill="#eb2561"></path><path d="M0 67L21.5 67.8C43 68.7 86 70.3 128.8 69.2C171.7 68 214.3 64 257.2 60.7C300 57.3 343 54.7 385.8 53.3C428.7 52 471.3 52 514.2 54.5C557 57 600 62 642.8 61.2C685.7 60.3 728.3 53.7 771.2 54.3C814 55 857 63 878.5 67L900 71L900 0L878.5 0C857 0 814 0 771.2 0C728.3 0 685.7 0 642.8 0C600 0 557 0 514.2 0C471.3 0 428.7 0 385.8 0C343 0 300 0 257.2 0C214.3 0 171.7 0 128.8 0C86 0 43 0 21.5 0L0 0Z" fill="#ca1d87"></path><path d="M0 61L21.5 57.8C43 54.7 86 48.3 128.8 45.7C171.7 43 214.3 44 257.2 46C300 48 343 51 385.8 52.8C428.7 54.7 471.3 55.3 514.2 56.5C557 57.7 600 59.3 642.8 56.5C685.7 53.7 728.3 46.3 771.2 44C814 41.7 857 44.3 878.5 45.7L900 47L900 0L878.5 0C857 0 814 0 771.2 0C728.3 0 685.7 0 642.8 0C600 0 557 0 514.2 0C471.3 0 428.7 0 385.8 0C343 0 300 0 257.2 0C214.3 0 171.7 0 128.8 0C86 0 43 0 21.5 0L0 0Z" fill="#9235a3"></path><path d="M0 38L21.5 34.8C43 31.7 86 25.3 128.8 23.8C171.7 22.3 214.3 25.7 257.2 25C300 24.3 343 19.7 385.8 19C428.7 18.3 471.3 21.7 514.2 25C557 28.3 600 31.7 642.8 30.2C685.7 28.7 728.3 22.3 771.2 21.8C814 21.3 857 26.7 878.5 29.3L900 32L900 0L878.5 0C857 0 814 0 771.2 0C728.3 0 685.7 0 642.8 0C600 0 557 0 514.2 0C471.3 0 428.7 0 385.8 0C343 0 300 0 257.2 0C214.3 0 171.7 0 128.8 0C86 0 43 0 21.5 0L0 0Z" fill="#3845ad"></path></svg>