<svg id="visual" viewBox="0 0 900 200" width="900" height="200" xmlns="http://www.w3.org/2000/svg" xmlns:xlink="http://www.w3.org/1999/xlink" version="1.1"><rect x="0" y="0" width="900" height="200" fill="#d9ddfd"></rect><path d="M0 61L21.5 61C43 61 86 61 128.8 61.7C171.7 62.3 214.3 63.7 257.2 62C300 60.3 343 55.7 385.8 54.5C428.7 53.3 471.3 55.7 514.2 57.7C557 59.7 600 61.3 642.8 63.7C685.7 66 728.3 69 771.2 70.2C814 71.3 857 70.7 878.5 70.3L900 70L900 0L878.5 0C857 0 814 0 771.2 0C728.3 0 685.7 0 642.8 0C600 0 557 0 514.2 0C471.3 0 428.7 0 385.8 0C343 0 300 0 257.2 0C214.3 0 171.7 0 128.8 0C86 0 43 0 21.5 0L0 0Z" fill="#f65035"></path><path d="M0 49L21.5 47.5C43 46 86 43 128.8 41.5C171.7 40 214.3 40 257.2 43.8C300 47.7 343 55.3 385.8 55.2C428.7 55 471.3 47 514.2 44.2C557 41.3 600 43.7 642.8 47.7C685.7 51.7 728.3 57.3 771.2 57C814 56.7 857 50.3 878.5 47.2L900 44L900 0L878.5 0C857 0 814 0 771.2 0C728.3 0 685.7 0 642.8 0C600 0 557 0 514.2 0C471.3 0 428.7 0 385.8 0C343 0 300 0 257.2 0C214.3 0 171.7 0 128.8 0C86 0 43 0 21.5 0L0 0Z" fill="#eb2561"></path><path d="M0 41L21.5 41.7C43 42.3 86 43.7 128.8 43C171.7 42.3 214.3 39.7 257.2 37.5C300 35.3 343 33.7 385.8 32.8C428.7 32 471.3 32 514.2 33.5C557 35 600 38 642.8 37.5C685.7 37 728.3 33 771.2 33.5C814 34 857 39 878.5 41.5L900 44L900 0L878.5 0C857 0 814 0 771.2 0C728.3 0 685.7 0 642.8 0C600 0 557 0 514.2 0C471.3 0 428.7 0 385.8 0C343 0 300 0 257.2 0C214.3 0 171.7 0 128.8 0C86 0 43 0 21.5 0L0 0Z" fill="#ca1d87"></path><path d="M0 38L21.5 36C43 34 86 30 128.8 28.3C171.7 26.7 214.3 27.3 257.2 28.5C300 29.7 343 31.3 385.8 32.5C428.7 33.7 471.3 34.3 514.2 35.2C557 36 600 37 642.8 35.2C685.7 33.3 728.3 28.7 771.2 27.2C814 25.7 857 27.3 878.5 28.2L900 29L900 0L878.5 0C857 0 814 0 771.2 0C728.3 0 685.7 0 642.8 0C600 0 557 0 514.2 0C471.3 0 428.7 0 385.8 0C343 0 300 0 257.2 0C214.3 0 171.7 0 128.8 0C86 0 43 0 21.5 0L0 0Z" fill="#9235a3"></path><path d="M0 24L21.5 22C43 20 86 16 128.8 15C171.7 14 214.3 16 257.2 15.5C300 15 343 12 385.8 11.5C428.7 11 471.3 13 514.2 15.2C557 17.3 600 19.7 642.8 18.8C685.7 18 728.3 14 771.2 13.5C814 13 857 16 878.5 17.5L900 19L900 0L878.5 0C857 0 814 0 771.2 0C728.3 0 685.7 0 642.8 0C600 0 557 0 514.2 0C471.3 0 428.7 0 385.8 0C343 0 300 0 257.2 0C214.3 0 171.7 0 128.8 0C86 0 43 0 21.5 0L0 0Z" fill="#3845ad"></path></svg>