<svg id="visual" viewBox="0 0 900 200" width="900" height="200" xmlns="http://www.w3.org/2000/svg" xmlns:xlink="http://www.w3.org/1999/xlink" version="1.1"><rect x="0" y="0" width="900" height="200" fill="#3845AD"></rect><path d="M0 117L21.5 116.5C43 116 86 115 128.8 110.8C171.7 106.7 214.3 99.3 257.2 97.7C300 96 343 100 385.8 100.2C428.7 100.3 471.3 96.7 514.2 100.3C557 104 600 115 642.8 114.3C685.7 113.7 728.3 101.3 771.2 94.8C814 88.3 857 87.7 878.5 87.3L900 87L900 0L878.5 0C857 0 814 0 771.2 0C728.3 0 685.7 0 642.8 0C600 0 557 0 514.2 0C471.3 0 428.7 0 385.8 0C343 0 300 0 257.2 0C214.3 0 171.7 0 128.8 0C86 0 43 0 21.5 0L0 0Z" fill="#f65035"></path><path d="M0 74L21.5 72.7C43 71.3 86 68.7 128.8 72C171.7 75.3 214.3 84.7 257.2 90.5C300 96.3 343 98.7 385.8 98.7C428.7 98.7 471.3 96.3 514.2 92C557 87.7 600 81.3 642.8 82.2C685.7 83 728.3 91 771.2 91.3C814 91.7 857 84.3 878.5 80.7L900 77L900 0L878.5 0C857 0 814 0 771.2 0C728.3 0 685.7 0 642.8 0C600 0 557 0 514.2 0C471.3 0 428.7 0 385.8 0C343 0 300 0 257.2 0C214.3 0 171.7 0 128.8 0C86 0 43 0 21.5 0L0 0Z" fill="#ff688c"></path><path d="M0 83L21.5 83C43 83 86 83 128.8 82.8C171.7 82.7 214.3 82.3 257.2 82C300 81.7 343 81.3 385.8 81.5C428.7 81.7 471.3 82.3 514.2 77.8C557 73.3 600 63.7 642.8 58.7C685.7 53.7 728.3 53.3 771.2 53.8C814 54.3 857 55.7 878.5 56.3L900 57L900 0L878.5 0C857 0 814 0 771.2 0C728.3 0 685.7 0 642.8 0C600 0 557 0 514.2 0C471.3 0 428.7 0 385.8 0C343 0 300 0 257.2 0C214.3 0 171.7 0 128.8 0C86 0 43 0 21.5 0L0 0Z" fill="#f993cf"></path><path d="M0 32L21.5 36.7C43 41.3 86 50.7 128.8 52.7C171.7 54.7 214.3 49.3 257.2 44.3C300 39.3 343 34.7 385.8 33.5C428.7 32.3 471.3 34.7 514.2 34.5C557 34.3 600 31.7 642.8 34.2C685.7 36.7 728.3 44.3 771.2 45.5C814 46.7 857 41.3 878.5 38.7L900 36L900 0L878.5 0C857 0 814 0 771.2 0C728.3 0 685.7 0 642.8 0C600 0 557 0 514.2 0C471.3 0 428.7 0 385.8 0C343 0 300 0 257.2 0C214.3 0 171.7 0 128.8 0C86 0 43 0 21.5 0L0 0Z" fill="#e0bcf4"></path><path d="M0 38L21.5 35.2C43 32.3 86 26.7 128.8 23.5C171.7 20.3 214.3 19.7 257.2 22.2C300 24.7 343 30.3 385.8 31C428.7 31.7 471.3 27.3 514.2 27.8C557 28.3 600 33.7 642.8 35.2C685.7 36.7 728.3 34.3 771.2 32.8C814 31.3 857 30.7 878.5 30.3L900 30L900 0L878.5 0C857 0 814 0 771.2 0C728.3 0 685.7 0 642.8 0C600 0 557 0 514.2 0C471.3 0 428.7 0 385.8 0C343 0 300 0 257.2 0C214.3 0 171.7 0 128.8 0C86 0 43 0 21.5 0L0 0Z" fill="#d9ddfd"></path></svg>