<svg id="visual" viewBox="0 0 960 300" width="960" height="300" xmlns="http://www.w3.org/2000/svg" xmlns:xlink="http://www.w3.org/1999/xlink" version="1.1"><path d="M0 109L22.8 108.7C45.7 108.3 91.3 107.7 137 103.8C182.7 100 228.3 93 274 91.5C319.7 90 365.3 94 411.2 94.2C457 94.3 503 90.7 548.8 94C594.7 97.3 640.3 107.7 686 107.2C731.7 106.7 777.3 95.3 823 89.2C868.7 83 914.3 82 937.2 81.5L960 81L960 0L937.2 0C914.3 0 868.7 0 823 0C777.3 0 731.7 0 686 0C640.3 0 594.7 0 548.8 0C503 0 457 0 411.2 0C365.3 0 319.7 0 274 0C228.3 0 182.7 0 137 0C91.3 0 45.7 0 22.8 0L0 0Z" fill="#f65035"></path><path d="M0 69L22.8 67.8C45.7 66.7 91.3 64.3 137 67.5C182.7 70.7 228.3 79.3 274 84.8C319.7 90.3 365.3 92.7 411.2 92.7C457 92.7 503 90.3 548.8 86.2C594.7 82 640.3 76 686 76.7C731.7 77.3 777.3 84.7 823 85C868.7 85.3 914.3 78.7 937.2 75.3L960 72L960 0L937.2 0C914.3 0 868.7 0 823 0C777.3 0 731.7 0 686 0C640.3 0 594.7 0 548.8 0C503 0 457 0 411.2 0C365.3 0 319.7 0 274 0C228.3 0 182.7 0 137 0C91.3 0 45.7 0 22.8 0L0 0Z" fill="#ff688c"></path><path d="M0 77L22.8 77.2C45.7 77.3 91.3 77.7 137 77.5C182.7 77.3 228.3 76.7 274 76.3C319.7 76 365.3 76 411.2 76.3C457 76.7 503 77.3 548.8 73.2C594.7 69 640.3 60 686 55.2C731.7 50.3 777.3 49.7 823 50C868.7 50.3 914.3 51.7 937.2 52.3L960 53L960 0L937.2 0C914.3 0 868.7 0 823 0C777.3 0 731.7 0 686 0C640.3 0 594.7 0 548.8 0C503 0 457 0 411.2 0C365.3 0 319.7 0 274 0C228.3 0 182.7 0 137 0C91.3 0 45.7 0 22.8 0L0 0Z" fill="#f993cf"></path><path d="M0 30L22.8 34.3C45.7 38.7 91.3 47.3 137 49.2C182.7 51 228.3 46 274 41.3C319.7 36.7 365.3 32.3 411.2 31.3C457 30.3 503 32.7 548.8 32.5C594.7 32.3 640.3 29.7 686 31.8C731.7 34 777.3 41 823 42.2C868.7 43.3 914.3 38.7 937.2 36.3L960 34L960 0L937.2 0C914.3 0 868.7 0 823 0C777.3 0 731.7 0 686 0C640.3 0 594.7 0 548.8 0C503 0 457 0 411.2 0C365.3 0 319.7 0 274 0C228.3 0 182.7 0 137 0C91.3 0 45.7 0 22.8 0L0 0Z" fill="#e0bcf4"></path><path d="M0 36L22.8 33.2C45.7 30.3 91.3 24.7 137 21.7C182.7 18.7 228.3 18.3 274 20.8C319.7 23.3 365.3 28.7 411.2 29.2C457 29.7 503 25.3 548.8 25.7C594.7 26 640.3 31 686 32.5C731.7 34 777.3 32 823 30.7C868.7 29.3 914.3 28.7 937.2 28.3L960 28L960 0L937.2 0C914.3 0 868.7 0 823 0C777.3 0 731.7 0 686 0C640.3 0 594.7 0 548.8 0C503 0 457 0 411.2 0C365.3 0 319.7 0 274 0C228.3 0 182.7 0 137 0C91.3 0 45.7 0 22.8 0L0 0Z" fill="#d9ddfd"></path></svg>